<?xml version="1.0" encoding="utf-8"?>
<!-- Generator: Adobe Illustrator 17.0.0, SVG Export Plug-In . SVG Version: 6.00 Build 0)  -->
<!DOCTYPE svg PUBLIC "-//W3C//DTD SVG 1.1//EN" "http://www.w3.org/Graphics/SVG/1.1/DTD/svg11.dtd">
<svg version="1.1" id="Capa_1" xmlns="http://www.w3.org/2000/svg" xmlns:xlink="http://www.w3.org/1999/xlink" x="0px" y="0px"
	 viewBox="0 0 50 50" enable-background="new 0 0 49 49" xml:space="preserve">
<g>
	<g id="XMLID_94_">
		<g opacity="0.12">
			<circle fill="#FFFFFF" cx="24.5" cy="24.5" r="23"/>
		</g>
		<g>
			<path fill="#FFFFFF" d="M24.5,47.999C11.542,47.999,1,37.457,1,24.5C1,11.542,11.542,1,24.5,1S48,11.542,48,24.5
				C48,37.457,37.458,47.999,24.5,47.999z M24.5,2C12.094,2,2,12.093,2,24.5c0,12.406,10.094,22.5,22.5,22.5S47,36.906,47,24.5
				C47,12.093,36.906,2,24.5,2z"/>
		</g>
	</g>
	<g id="XMLID_93_">
		<path fill="#C4C4C4" d="M26.333,19.632v-1.97c0-0.96,0.64-1.183,1.09-1.183c0.449,0,2.764,0,2.764,0v-4.222L26.38,12.24
			c-4.225,0-5.185,3.149-5.185,5.164v2.227h-2.443v2.977v1.95h2.464c0,5.584,0,12.319,0,12.319h4.927c0,0,0-6.802,0-12.319H29.8
			l0.177-1.935l0.272-2.992H26.333z"/>
	</g>
</g>
</svg>
