<?xml version="1.0" encoding="utf-8"?>
<!-- Generator: Adobe Illustrator 17.0.0, SVG Export Plug-In . SVG Version: 6.00 Build 0)  -->
<!DOCTYPE svg PUBLIC "-//W3C//DTD SVG 1.1//EN" "http://www.w3.org/Graphics/SVG/1.1/DTD/svg11.dtd">
<svg version="1.1" id="Capa_1" xmlns="http://www.w3.org/2000/svg" xmlns:xlink="http://www.w3.org/1999/xlink" x="0px" y="0px"
	 width="90px" height="90px" viewBox="0 0 90 90" enable-background="new 0 0 90 90" xml:space="preserve">
<g>
	
		<circle fill="none" stroke="#2D203E" stroke-width="1.4203" stroke-linecap="round" stroke-linejoin="round" stroke-miterlimit="10" cx="45" cy="45" r="44.187"/>
	
		<circle fill="none" stroke="#E7485B" stroke-width="1.4203" stroke-linecap="round" stroke-linejoin="round" stroke-miterlimit="10" cx="45" cy="45" r="39.458"/>
	<g>
		
			<path fill="none" stroke="#2D203E" stroke-width="1.4203" stroke-linecap="round" stroke-linejoin="round" stroke-miterlimit="10" d="
			M69.22,56.561c0,0.704-0.571,1.275-1.275,1.275H22.054c-0.704,0-1.275-0.571-1.275-1.275V28.516c0-0.704,0.571-1.275,1.275-1.275
			h45.891c0.704,0,1.275,0.571,1.275,1.275V56.561z"/>
		
			<rect x="24.604" y="31.066" fill="none" stroke="#2D203E" stroke-width="1.4203" stroke-linecap="round" stroke-linejoin="round" stroke-miterlimit="10" width="40.792" height="22.946"/>
		
			<path fill="none" stroke="#E7485B" stroke-width="1.4203" stroke-linecap="round" stroke-linejoin="round" stroke-miterlimit="10" d="
			M36.077,64.847c0-1.109,0.814-1.912,1.912-1.912h14.022c1.098,0,1.912,0.899,1.912,2.008v1.817H36.077V64.847z"/>
		
			<line fill="none" stroke="#2D203E" stroke-width="1.4203" stroke-linecap="round" stroke-linejoin="round" stroke-miterlimit="10" x1="45" y1="58.473" x2="45" y2="60.385"/>
		<g>
			
				<path fill="none" stroke="#E7485B" stroke-width="1.4203" stroke-linecap="round" stroke-linejoin="round" stroke-miterlimit="10" d="
				M55.968,37.596c0,4.116,0,12.7,0,12.7c0,0.295-0.24,0.535-0.535,0.535H34.567c-0.295,0-0.535-0.24-0.535-0.535
				c0,0,0-8.618,0-12.7"/>
			
				<path fill="none" stroke="#E7485B" stroke-width="1.4203" stroke-linecap="round" stroke-linejoin="round" stroke-miterlimit="10" d="
				M55.968,37.991H34.032c0-1.1,0-3.21,0-3.21c0-0.295,0.24-0.535,0.535-0.535h20.865c0.295,0,0.535,0.24,0.535,0.535
				C55.968,34.781,55.968,36.84,55.968,37.991z"/>
			
				<line fill="none" stroke="#E7485B" stroke-width="1.4203" stroke-linecap="round" stroke-linejoin="round" stroke-miterlimit="10" x1="35.905" y1="41.736" x2="53.828" y2="41.736"/>
			
				<line fill="none" stroke="#E7485B" stroke-width="1.4203" stroke-linecap="round" stroke-linejoin="round" stroke-miterlimit="10" x1="35.905" y1="44.411" x2="53.828" y2="44.411"/>
			
				<line fill="none" stroke="#E7485B" stroke-width="1.4203" stroke-linecap="round" stroke-linejoin="round" stroke-miterlimit="10" x1="35.905" y1="47.086" x2="49.373" y2="47.086"/>
			<circle fill="#E7485B" cx="35.905" cy="36.118" r="0.535"/>
			<circle fill="#E7485B" cx="38.045" cy="36.118" r="0.535"/>
			<circle fill="#E7485B" cx="40.185" cy="36.118" r="0.535"/>
		</g>
	</g>
</g>
</svg>
