<?xml version="1.0" encoding="utf-8"?>
<!-- Generator: Adobe Illustrator 17.0.0, SVG Export Plug-In . SVG Version: 6.00 Build 0)  -->
<!DOCTYPE svg PUBLIC "-//W3C//DTD SVG 1.1//EN" "http://www.w3.org/Graphics/SVG/1.1/DTD/svg11.dtd">
<svg version="1.1" id="Capa_1" xmlns="http://www.w3.org/2000/svg" xmlns:xlink="http://www.w3.org/1999/xlink" x="0px" y="0px"
	 width="90px" height="90px" viewBox="0 0 90 90" enable-background="new 0 0 90 90" xml:space="preserve">
<g>
	
		<circle fill="none" stroke="#2D203E" stroke-width="1.4203" stroke-linecap="round" stroke-linejoin="round" stroke-miterlimit="10" cx="45" cy="45" r="44.187"/>
	
		<circle fill="none" stroke="#E7485B" stroke-width="1.4203" stroke-linecap="round" stroke-linejoin="round" stroke-miterlimit="10" cx="45" cy="45" r="39.458"/>
	<g>
		
			<path fill="none" stroke="#E7485B" stroke-width="1.4203" stroke-linecap="round" stroke-linejoin="round" stroke-miterlimit="10" d="
			M62.474,43.192c4.586,1.459,7.231,3.733,7.231,7.833c0,2.926-2.211,5.436-4.82,7.231v5.423c0,0-2.62-0.532-4.82-3.013
			c-0.962,0.184-1.978,0.603-3.013,0.603c-3.335,0-5.584-0.756-7.833-2.41"/>
		
			<path fill="none" stroke="#2D203E" stroke-width="1.4203" stroke-linecap="round" stroke-linejoin="round" stroke-miterlimit="10" d="
			M39.79,26.321c-11.099,0-19.495,7.015-19.495,15.669c0,4.682,3.055,8.574,7.231,11.446v8.311c0,0,4.311-1.932,7.833-5.901
			c1.54,0.295,3.377,0.608,5.034,0.608c11.099,0,18.466-5.813,18.466-14.467S50.89,26.321,39.79,26.321z"/>
		
			<circle fill="none" stroke="#E7485B" stroke-width="1.4203" stroke-linecap="round" stroke-linejoin="round" stroke-miterlimit="10" cx="39.577" cy="41.987" r="1.808"/>
		
			<circle fill="none" stroke="#E7485B" stroke-width="1.4203" stroke-linecap="round" stroke-linejoin="round" stroke-miterlimit="10" cx="48.013" cy="41.987" r="1.808"/>
		
			<circle fill="none" stroke="#E7485B" stroke-width="1.4203" stroke-linecap="round" stroke-linejoin="round" stroke-miterlimit="10" cx="31.141" cy="42.101" r="1.808"/>
	</g>
</g>
</svg>
