<?xml version="1.0" encoding="utf-8"?>
<!-- Generator: Adobe Illustrator 17.0.0, SVG Export Plug-In . SVG Version: 6.00 Build 0)  -->
<!DOCTYPE svg PUBLIC "-//W3C//DTD SVG 1.1//EN" "http://www.w3.org/Graphics/SVG/1.1/DTD/svg11.dtd">
<svg version="1.1" id="Capa_1" xmlns="http://www.w3.org/2000/svg" xmlns:xlink="http://www.w3.org/1999/xlink" x="0px" y="0px"
	 width="90px" height="90px" viewBox="0 0 90 90" enable-background="new 0 0 90 90" xml:space="preserve">
<g>
	
		<circle fill="none" stroke="#2D203E" stroke-width="1.4203" stroke-linecap="round" stroke-linejoin="round" stroke-miterlimit="10" cx="45" cy="45" r="44.187"/>
	
		<circle fill="none" stroke="#E7485B" stroke-width="1.4203" stroke-linecap="round" stroke-linejoin="round" stroke-miterlimit="10" cx="45" cy="45" r="39.458"/>
	<g>
		<g>
			
				<path fill="none" stroke="#2D203E" stroke-width="1.4203" stroke-linecap="round" stroke-linejoin="round" stroke-miterlimit="10" d="
				M55.022,47.072c4.563,4.562,8.081,8.081,8.081,8.081c0.5,0.5,0.407,1.401-0.093,1.901l-6.025,6.096c-0.5,0.5-1.68,0.73-2.41,0
				c0,0-3.103-3.321-7.626-7.845"/>
			
				<path fill="none" stroke="#2D203E" stroke-width="1.4203" stroke-linecap="round" stroke-linejoin="round" stroke-miterlimit="10" d="
				M34.749,43.107c-4.646-4.646-7.892-7.745-7.892-7.745c-0.5-0.5-0.829-1.582,0-2.41l6.025-6.025c0.5-0.5,1.481-0.929,2.41,0
				c0,0,3.006,3.422,7.691,8.106"/>
			
				<line fill="none" stroke="#2D203E" stroke-width="1.4203" stroke-linecap="round" stroke-linejoin="round" stroke-miterlimit="10" x1="52.992" y1="61.046" x2="57.586" y2="56.452"/>
			
				<line fill="none" stroke="#2D203E" stroke-width="1.4203" stroke-linecap="round" stroke-linejoin="round" stroke-miterlimit="10" x1="49.427" y1="57.38" x2="51.561" y2="55.246"/>
			
				<line fill="none" stroke="#2D203E" stroke-width="1.4203" stroke-linecap="round" stroke-linejoin="round" stroke-miterlimit="10" x1="28.865" y1="36.969" x2="33.485" y2="32.35"/>
			
				<line fill="none" stroke="#2D203E" stroke-width="1.4203" stroke-linecap="round" stroke-linejoin="round" stroke-miterlimit="10" x1="32.505" y1="40.559" x2="34.69" y2="38.375"/>
		</g>
		<g>
			
				<polygon fill="none" stroke="#E7485B" stroke-width="1.4203" stroke-linecap="round" stroke-linejoin="round" stroke-miterlimit="10" points="
				30.062,51.95 50.79,31.222 58.9,39.333 38.305,60.067 26.254,63.657 			"/>
			
				<path fill="none" stroke="#E7485B" stroke-width="1.4203" stroke-linecap="round" stroke-linejoin="round" stroke-miterlimit="10" d="
				M58.867,39.333l4.506-4.506c0.498-0.498,0.498-1.305,0-1.802l-6.308-6.308c-0.498-0.498-1.305-0.498-1.802,0l-4.506,4.506"/>
			
				<polyline fill="none" stroke="#E7485B" stroke-width="1.4203" stroke-linecap="round" stroke-linejoin="round" stroke-miterlimit="10" points="
				56.668,37.134 37.1,56.452 38.139,60.06 			"/>
			
				<polyline fill="none" stroke="#E7485B" stroke-width="1.4203" stroke-linecap="round" stroke-linejoin="round" stroke-miterlimit="10" points="
				30.029,51.95 33.527,52.744 52.877,33.343 			"/>
			
				<polyline fill="none" stroke="#E7485B" stroke-width="1.4203" stroke-linecap="round" stroke-linejoin="round" stroke-miterlimit="10" points="
				33.485,52.836 33.485,56.452 37.1,56.452 			"/>
		</g>
	</g>
</g>
</svg>
