<?xml version="1.0" encoding="utf-8"?>
<!-- Generator: Adobe Illustrator 17.0.0, SVG Export Plug-In . SVG Version: 6.00 Build 0)  -->
<!DOCTYPE svg PUBLIC "-//W3C//DTD SVG 1.1//EN" "http://www.w3.org/Graphics/SVG/1.1/DTD/svg11.dtd">
<svg version="1.1" id="Capa_1" xmlns="http://www.w3.org/2000/svg" xmlns:xlink="http://www.w3.org/1999/xlink" x="0px" y="0px"
	 width="90px" height="90px" viewBox="0 0 90 90" enable-background="new 0 0 90 90" xml:space="preserve">
<g>
	
		<circle fill="none" stroke="#2D203E" stroke-width="1.4203" stroke-linecap="round" stroke-linejoin="round" stroke-miterlimit="10" cx="45" cy="45" r="44.187"/>
	
		<circle fill="none" stroke="#E7485B" stroke-width="1.4203" stroke-linecap="round" stroke-linejoin="round" stroke-miterlimit="10" cx="45" cy="45" r="39.458"/>
	<g>
		
			<path fill="none" stroke="#E7485B" stroke-width="1.4203" stroke-linecap="round" stroke-linejoin="round" stroke-miterlimit="10" d="
			M51.807,29.806c0.873-0.881,1.602-1.615,1.602-1.615c0.459-0.478,1.377-0.869,2.04-0.869h12.051c0.663,0,1.205,0.542,1.205,1.205
			v12.11c0,0.663-0.392,1.58-0.87,2.039L50.857,59.52c-0.479,0.459-1.254,0.45-1.722-0.018c0,0-1.986-1.986-3.193-3.193"/>
		
			<circle fill="none" stroke="#2D203E" stroke-width="1.4203" stroke-linecap="round" stroke-linejoin="round" stroke-miterlimit="10" cx="63.327" cy="32.744" r="1.808"/>
		
			<path fill="none" stroke="#2D203E" stroke-width="1.4203" stroke-linecap="round" stroke-linejoin="round" stroke-miterlimit="10" d="
			M33.941,64.34c-0.479,0.459-1.254,0.45-1.722-0.018L19.652,51.756c-0.469-0.469-0.477-1.243-0.018-1.722l16.858-17.023
			c0.459-0.478,1.377-0.869,2.04-0.869h12.051c0.663,0,1.205,0.542,1.205,1.205v12.11c0,0.663-0.392,1.58-0.87,2.039L33.941,64.34z"
			/>
		
			<circle fill="none" stroke="#E7485B" stroke-width="1.4203" stroke-linecap="round" stroke-linejoin="round" stroke-miterlimit="10" cx="46.41" cy="37.564" r="1.808"/>
	</g>
</g>
</svg>
