<?xml version="1.0" encoding="utf-8"?>
<!-- Generator: Adobe Illustrator 17.0.0, SVG Export Plug-In . SVG Version: 6.00 Build 0)  -->
<!DOCTYPE svg PUBLIC "-//W3C//DTD SVG 1.1//EN" "http://www.w3.org/Graphics/SVG/1.1/DTD/svg11.dtd">
<svg version="1.1" id="Capa_1" xmlns="http://www.w3.org/2000/svg" xmlns:xlink="http://www.w3.org/1999/xlink" x="0px" y="0px"
	 width="90px" height="90px" viewBox="0 0 90 90" enable-background="new 0 0 90 90" xml:space="preserve">
<g>
	
		<circle fill="none" stroke="#2D203E" stroke-width="1.4203" stroke-linecap="round" stroke-linejoin="round" stroke-miterlimit="10" cx="45" cy="45" r="44.187"/>
	
		<circle fill="none" stroke="#E7485B" stroke-width="1.4203" stroke-linecap="round" stroke-linejoin="round" stroke-miterlimit="10" cx="45" cy="45" r="39.458"/>
	<g>
		
			<path fill="none" stroke="#2D203E" stroke-width="1.4203" stroke-linecap="round" stroke-linejoin="round" stroke-miterlimit="10" d="
			M66.692,62.474c0,0.711-0.494,1.205-1.205,1.205H24.513c-0.712,0-1.205-0.494-1.205-1.205V27.526c0-0.711,0.494-1.205,1.205-1.205
			h40.973c0.711,0,1.205,0.494,1.205,1.205V62.474z"/>
		
			<rect x="31.744" y="26.321" fill="none" stroke="#2D203E" stroke-width="1.4203" stroke-linecap="round" stroke-linejoin="round" stroke-miterlimit="10" width="26.512" height="37.358"/>
		
			<polygon fill="none" stroke="#E7485B" stroke-width="1.4203" stroke-linecap="round" stroke-linejoin="round" stroke-miterlimit="10" points="
			40.18,38.372 51.025,45.603 40.18,52.833 		"/>
		
			<line fill="none" stroke="#E7485B" stroke-width="1.4203" stroke-linecap="round" stroke-linejoin="round" stroke-miterlimit="10" x1="26.321" y1="35.962" x2="28.731" y2="35.962"/>
		
			<line fill="none" stroke="#E7485B" stroke-width="1.4203" stroke-linecap="round" stroke-linejoin="round" stroke-miterlimit="10" x1="26.321" y1="31.141" x2="28.731" y2="31.141"/>
		
			<line fill="none" stroke="#E7485B" stroke-width="1.4203" stroke-linecap="round" stroke-linejoin="round" stroke-miterlimit="10" x1="26.321" y1="40.782" x2="28.731" y2="40.782"/>
		
			<line fill="none" stroke="#E7485B" stroke-width="1.4203" stroke-linecap="round" stroke-linejoin="round" stroke-miterlimit="10" x1="26.321" y1="45.603" x2="28.731" y2="45.603"/>
		
			<line fill="none" stroke="#E7485B" stroke-width="1.4203" stroke-linecap="round" stroke-linejoin="round" stroke-miterlimit="10" x1="26.321" y1="50.423" x2="28.731" y2="50.423"/>
		
			<line fill="none" stroke="#E7485B" stroke-width="1.4203" stroke-linecap="round" stroke-linejoin="round" stroke-miterlimit="10" x1="26.321" y1="55.243" x2="28.731" y2="55.243"/>
		
			<line fill="none" stroke="#E7485B" stroke-width="1.4203" stroke-linecap="round" stroke-linejoin="round" stroke-miterlimit="10" x1="26.321" y1="60.064" x2="28.731" y2="60.064"/>
		
			<line fill="none" stroke="#E7485B" stroke-width="1.4203" stroke-linecap="round" stroke-linejoin="round" stroke-miterlimit="10" x1="61.269" y1="35.962" x2="63.679" y2="35.962"/>
		
			<line fill="none" stroke="#E7485B" stroke-width="1.4203" stroke-linecap="round" stroke-linejoin="round" stroke-miterlimit="10" x1="61.269" y1="31.141" x2="63.679" y2="31.141"/>
		
			<line fill="none" stroke="#E7485B" stroke-width="1.4203" stroke-linecap="round" stroke-linejoin="round" stroke-miterlimit="10" x1="61.269" y1="40.782" x2="63.679" y2="40.782"/>
		
			<line fill="none" stroke="#E7485B" stroke-width="1.4203" stroke-linecap="round" stroke-linejoin="round" stroke-miterlimit="10" x1="61.269" y1="45.603" x2="63.679" y2="45.603"/>
		
			<line fill="none" stroke="#E7485B" stroke-width="1.4203" stroke-linecap="round" stroke-linejoin="round" stroke-miterlimit="10" x1="61.269" y1="50.423" x2="63.679" y2="50.423"/>
		
			<line fill="none" stroke="#E7485B" stroke-width="1.4203" stroke-linecap="round" stroke-linejoin="round" stroke-miterlimit="10" x1="61.269" y1="55.243" x2="63.679" y2="55.243"/>
		
			<line fill="none" stroke="#E7485B" stroke-width="1.4203" stroke-linecap="round" stroke-linejoin="round" stroke-miterlimit="10" x1="61.269" y1="60.064" x2="63.679" y2="60.064"/>
	</g>
</g>
</svg>
