<?xml version="1.0" encoding="utf-8"?>
<!-- Generator: Adobe Illustrator 17.0.0, SVG Export Plug-In . SVG Version: 6.00 Build 0)  -->
<!DOCTYPE svg PUBLIC "-//W3C//DTD SVG 1.1//EN" "http://www.w3.org/Graphics/SVG/1.1/DTD/svg11.dtd">
<svg version="1.1" id="Capa_1" xmlns="http://www.w3.org/2000/svg" xmlns:xlink="http://www.w3.org/1999/xlink" x="0px" y="0px"
	 width="106px" height="106px" viewBox="0 0 106 106" enable-background="new 0 0 106 106" xml:space="preserve">
<g>
	<g>
		<g>
			<path fill="#2D203E" d="M53.044,75.632c-12.479,0-22.632-10.152-22.632-22.632s10.152-22.632,22.632-22.632
				S75.676,40.521,75.676,53S65.524,75.632,53.044,75.632z M53.044,31.782c-11.699,0-21.218,9.519-21.218,21.218
				s9.519,21.218,21.218,21.218S74.262,64.699,74.262,53S64.743,31.782,53.044,31.782z"/>
		</g>
		<g>
			<path fill="#2D203E" d="M53.044,69.974c-9.36,0-16.974-7.614-16.974-16.974s7.614-16.974,16.974-16.974S70.018,43.641,70.018,53
				S62.404,69.974,53.044,69.974z M53.044,37.44c-8.58,0-15.56,6.98-15.56,15.56s6.98,15.56,15.56,15.56s15.56-6.98,15.56-15.56
				S61.624,37.44,53.044,37.44z"/>
		</g>
		<g>
			<path fill="#2D203E" d="M53.044,64.316c-6.24,0-11.316-5.076-11.316-11.316c0-6.239,5.076-11.315,11.316-11.315
				S64.36,46.761,64.36,53C64.36,59.24,59.284,64.316,53.044,64.316z M53.044,43.099c-5.46,0-9.902,4.441-9.902,9.901
				s4.442,9.902,9.902,9.902S62.946,58.46,62.946,53S58.504,43.099,53.044,43.099z"/>
		</g>
		<g>
			<path fill="#E7485B" d="M53.044,58.658c-3.12,0-5.658-2.538-5.658-5.658c0-3.119,2.538-5.657,5.658-5.657
				s5.658,2.538,5.658,5.657C58.702,56.12,56.164,58.658,53.044,58.658z M53.044,48.757c-2.34,0-4.244,1.903-4.244,4.243
				s1.904,4.244,4.244,4.244S57.288,55.34,57.288,53S55.384,48.757,53.044,48.757z"/>
		</g>
		<g>
			<path fill="#E7485B" d="M84.871,54.414h-31.12c-0.391,0-0.707-0.316-0.707-0.707S53.361,53,53.751,53h31.12
				c0.391,0,0.707,0.316,0.707,0.707S85.261,54.414,84.871,54.414z"/>
		</g>
		<g>
			<path fill="#E7485B" d="M80.628,58.658c-0.203,0-0.404-0.086-0.544-0.254l-3.536-4.244c-0.218-0.263-0.218-0.644,0-0.906
				l3.536-4.243c0.251-0.301,0.696-0.341,0.996-0.09c0.3,0.25,0.341,0.695,0.091,0.996l-3.159,3.79l3.159,3.791
				c0.25,0.301,0.209,0.746-0.091,0.996C80.948,58.604,80.787,58.658,80.628,58.658z"/>
		</g>
		<g>
			<path fill="#E7485B" d="M84.827,58.658c-0.203,0-0.404-0.086-0.544-0.254l-3.536-4.244c-0.218-0.263-0.218-0.644,0-0.906
				l3.536-4.243c0.251-0.301,0.696-0.341,0.996-0.09c0.3,0.25,0.341,0.695,0.091,0.996l-3.159,3.79l3.159,3.791
				c0.25,0.301,0.209,0.746-0.091,0.996C85.147,58.604,84.987,58.658,84.827,58.658z"/>
		</g>
		<g>
			<path fill="#E7485B" d="M89.026,58.658c-0.203,0-0.404-0.086-0.544-0.254l-3.536-4.244c-0.218-0.263-0.218-0.644,0-0.906
				l3.536-4.243c0.251-0.301,0.696-0.341,0.996-0.09c0.3,0.25,0.341,0.695,0.091,0.996l-3.159,3.79l3.159,3.791
				c0.25,0.301,0.209,0.746-0.091,0.996C89.346,58.604,89.186,58.658,89.026,58.658z"/>
		</g>
	</g>
	<g>
		<path fill="#E7485B" d="M53,105.761C23.907,105.761,0.239,82.093,0.239,53S23.907,0.239,53,0.239
			c29.093,0,52.761,23.668,52.761,52.761S82.093,105.761,53,105.761z M53,1.653C24.687,1.653,1.653,24.688,1.653,53
			S24.687,104.347,53,104.347c28.313,0,51.347-23.034,51.347-51.347S81.313,1.653,53,1.653z"/>
	</g>
	<g>
		<path fill="#2D203E" d="M53,100.688C26.704,100.688,5.311,79.296,5.311,53S26.704,5.312,53,5.312S100.688,26.704,100.688,53
			S79.295,100.688,53,100.688z M53,6.688C27.464,6.688,6.688,27.464,6.688,53S27.464,99.312,53,99.312S99.311,78.536,99.311,53
			S78.536,6.688,53,6.688z"/>
	</g>
</g>
</svg>
