<?xml version="1.0" encoding="utf-8"?>
<!-- Generator: Adobe Illustrator 17.0.0, SVG Export Plug-In . SVG Version: 6.00 Build 0)  -->
<!DOCTYPE svg PUBLIC "-//W3C//DTD SVG 1.1//EN" "http://www.w3.org/Graphics/SVG/1.1/DTD/svg11.dtd">
<svg version="1.1" id="Capa_1" xmlns="http://www.w3.org/2000/svg" xmlns:xlink="http://www.w3.org/1999/xlink" x="0px" y="0px"
	 width="106px" height="106px" viewBox="0 0 106 106" enable-background="new 0 0 106 106" xml:space="preserve">
<g>
	<g>
		<g>
			<path fill="#2D203E" d="M53,75.632c-5.552,0-9.901-9.941-9.901-22.632S47.448,30.368,53,30.368S62.901,40.31,62.901,53
				S58.552,75.632,53,75.632z M53,31.782c-4.601,0-8.487,9.717-8.487,21.218S48.399,74.218,53,74.218S61.487,64.501,61.487,53
				S57.6,31.782,53,31.782z"/>
		</g>
		<g>
			<path fill="#2D203E" d="M39.794,67.258L39.794,67.258c-3.606,0-6.099-1.018-7.209-2.941c-1.365-2.364-0.376-5.789,2.784-9.644
				c2.938-3.584,7.442-7.223,12.681-10.247c6.163-3.559,12.95-5.683,18.157-5.683c3.606,0,6.099,1.018,7.209,2.941
				c1.365,2.364,0.376,5.789-2.784,9.643c-2.938,3.584-7.442,7.224-12.681,10.248C51.788,65.134,45.001,67.258,39.794,67.258z
				 M66.206,40.158c-4.969,0-11.493,2.053-17.45,5.492c-5.095,2.941-9.461,6.464-12.294,9.92c-2.76,3.366-3.702,6.222-2.653,8.039
				c0.832,1.44,2.957,2.233,5.985,2.233c4.969,0.001,11.492-2.053,17.449-5.492c5.095-2.942,9.461-6.465,12.294-9.92
				c2.76-3.366,3.702-6.222,2.653-8.039C71.359,40.951,69.234,40.158,66.206,40.158z"/>
		</g>
		<g>
			<path fill="#2D203E" d="M66.207,67.258c0,0-0.001,0-0.001,0c-5.207,0-11.995-2.125-18.157-5.683
				c-5.239-3.024-9.743-6.664-12.681-10.248c-3.16-3.854-4.149-7.278-2.784-9.643c1.11-1.924,3.604-2.941,7.209-2.941
				c5.207,0,11.994,2.124,18.156,5.683c5.239,3.024,9.743,6.663,12.681,10.247c3.16,3.854,4.149,7.279,2.784,9.644
				C72.305,66.24,69.812,67.258,66.207,67.258z M39.794,40.158c-3.028,0-5.153,0.793-5.985,2.233
				c-1.049,1.817-0.107,4.673,2.653,8.039c2.833,3.455,7.199,6.978,12.294,9.92c5.957,3.438,12.48,5.492,17.45,5.492
				c0,0,0.001,0,0.001,0c3.027,0,5.151-0.793,5.983-2.233c1.049-1.817,0.107-4.673-2.653-8.039c-2.833-3.456-7.2-6.979-12.294-9.92
				C51.286,42.211,44.763,40.158,39.794,40.158z"/>
		</g>
		<g>
			<path fill="#E7485B" d="M53,56.536c-1.95,0-3.536-1.586-3.536-3.536S51.05,49.464,53,49.464S56.536,51.05,56.536,53
				S54.949,56.536,53,56.536z M53,50.878c-1.17,0-2.122,0.952-2.122,2.122S51.83,55.122,53,55.122S55.122,54.17,55.122,53
				S54.17,50.878,53,50.878z"/>
		</g>
	</g>
	<g>
		<path fill="#E7485B" d="M53,105.761C23.907,105.761,0.239,82.093,0.239,53S23.907,0.239,53,0.239
			c29.093,0,52.761,23.668,52.761,52.761S82.093,105.761,53,105.761z M53,1.653C24.687,1.653,1.653,24.688,1.653,53
			S24.687,104.347,53,104.347c28.313,0,51.347-23.034,51.347-51.347S81.313,1.653,53,1.653z"/>
	</g>
	<g>
		<path fill="#2D203E" d="M53,100.688C26.704,100.688,5.311,79.296,5.311,53S26.704,5.312,53,5.312S100.688,26.704,100.688,53
			S79.295,100.688,53,100.688z M53,6.688C27.464,6.688,6.688,27.464,6.688,53S27.464,99.312,53,99.312S99.311,78.536,99.311,53
			S78.536,6.688,53,6.688z"/>
	</g>
</g>
</svg>
