<?xml version="1.0" encoding="utf-8"?>
<!-- Generator: Adobe Illustrator 17.0.0, SVG Export Plug-In . SVG Version: 6.00 Build 0)  -->
<!DOCTYPE svg PUBLIC "-//W3C//DTD SVG 1.1//EN" "http://www.w3.org/Graphics/SVG/1.1/DTD/svg11.dtd">
<svg version="1.1" id="Capa_1" xmlns="http://www.w3.org/2000/svg" xmlns:xlink="http://www.w3.org/1999/xlink" x="0px" y="0px"
	 width="106px" height="106px" viewBox="0 0 106 106" enable-background="new 0 0 106 106" xml:space="preserve">
<g>
	<g>
		<path fill="#E7485B" d="M53,79.758c-0.142,0-0.284-0.043-0.406-0.128c-0.598-0.42-14.711-10.352-20.288-16.857
			c-3.837-4.477-5.474-8.634-5.474-13.897c0-7.8,6.345-14.146,14.145-14.146c3.502,0,6.87,1.304,9.483,3.67
			c0.992,0.899,1.843,1.921,2.54,3.048c0.697-1.127,1.548-2.148,2.541-3.048c2.612-2.366,5.98-3.67,9.482-3.67
			c7.8,0,14.145,6.346,14.145,14.146c0,5.265-1.637,9.421-5.475,13.897C68.117,69.278,54.004,79.21,53.406,79.63
			C53.284,79.715,53.142,79.758,53,79.758z M40.977,36.144c-7.02,0-12.731,5.712-12.731,12.731c0,4.897,1.536,8.778,5.134,12.978
			C38.323,67.618,50.608,76.48,53,78.184c2.392-1.703,14.677-10.565,19.62-16.331c3.599-4.199,5.135-8.08,5.135-12.978
			c0-7.02-5.711-12.731-12.731-12.731c-3.151,0-6.181,1.174-8.533,3.305c-1.186,1.073-2.147,2.341-2.858,3.767
			c-0.12,0.24-0.365,0.392-0.633,0.392l0,0c-0.269,0-0.514-0.151-0.633-0.392c-0.71-1.426-1.671-2.693-2.856-3.767
			C47.158,37.317,44.128,36.144,40.977,36.144z"/>
	</g>
	<g>
		<path fill="#E7485B" d="M53,105.761C23.907,105.761,0.239,82.093,0.239,53S23.907,0.239,53,0.239
			c29.093,0,52.761,23.668,52.761,52.761S82.093,105.761,53,105.761z M53,1.653C24.687,1.653,1.653,24.688,1.653,53
			S24.687,104.347,53,104.347c28.313,0,51.347-23.034,51.347-51.347S81.313,1.653,53,1.653z"/>
	</g>
	<g>
		<path fill="#2D203E" d="M53,100.688C26.704,100.688,5.311,79.296,5.311,53S26.704,5.312,53,5.312S100.688,26.704,100.688,53
			S79.295,100.688,53,100.688z M53,6.688C27.464,6.688,6.688,27.464,6.688,53S27.464,99.312,53,99.312S99.311,78.536,99.311,53
			S78.536,6.688,53,6.688z"/>
	</g>
</g>
</svg>
