<?xml version="1.0" encoding="utf-8"?>
<!-- Generator: Adobe Illustrator 17.0.0, SVG Export Plug-In . SVG Version: 6.00 Build 0)  -->
<!DOCTYPE svg PUBLIC "-//W3C//DTD SVG 1.1//EN" "http://www.w3.org/Graphics/SVG/1.1/DTD/svg11.dtd">
<svg version="1.1" id="Capa_1" xmlns="http://www.w3.org/2000/svg" xmlns:xlink="http://www.w3.org/1999/xlink" x="0px" y="0px"
	 width="49.001px" height="49px" viewBox="0 0 49.001 49" enable-background="new 0 0 49.001 49" xml:space="preserve">
<g>
	<g id="XMLID_87_">
		<g opacity="0.12">
			<circle fill="#FFFFFF" cx="24.5" cy="24.499" r="23"/>
		</g>
		<g>
			<path fill="#FFFFFF" d="M24.5,48C11.542,48,1,37.458,1,24.5C1,11.542,11.542,1,24.5,1S48,11.542,48,24.5
				C48,37.458,37.458,48,24.5,48z M24.5,2C12.094,2,2,12.093,2,24.5C2,36.906,12.094,47,24.5,47S47,36.906,47,24.5
				C47,12.093,36.907,2,24.5,2z"/>
		</g>
	</g>
	<g>
		<g>
			<path fill="#C4C4C4" d="M36.469,18.33c-0.405-2.804-2.46-4.877-5.263-5.287c-4.272-0.625-8.565-0.626-12.838-0.005
				c-2.948,0.429-4.962,2.631-5.346,5.649c-0.512,4.022-0.511,8.043-0.004,12.066c0.401,3.177,2.536,5.349,5.708,5.727
				c2.067,0.246,4.142,0.339,6.227,0.339c2.054,0,4.032-0.113,6.03-0.364c2.913-0.367,5.059-2.414,5.48-5.287
				C37.09,26.896,37.086,22.604,36.469,18.33z M34.472,29.711c-0.105,3.083-1.786,4.582-4.91,4.738
				c-1.624,0.081-2.978,0.014-4.978,0.014c0-0.003,0-0.006,0-0.008c-2,0-3.295,0.083-4.981-0.018
				c-2.914-0.176-4.448-1.65-4.561-4.524c-0.135-3.445-0.11-6.904,0.023-10.349c0.111-2.875,1.703-4.415,4.614-4.521
				c3.381-0.123,6.78-0.125,10.161,0c2.977,0.11,4.529,1.7,4.629,4.708C34.58,23.068,34.585,26.394,34.472,29.711z"/>
		</g>
		<g>
			<path fill="#C4C4C4" d="M24.868,18.579c-3.273-0.067-6.115,2.643-6.251,5.962c-0.136,3.331,2.678,6.28,6.058,6.349
				c3.273,0.067,6.115-2.643,6.251-5.962C31.063,21.598,28.249,18.648,24.868,18.579z M24.635,28.686
				c-2.201-0.066-3.882-1.868-3.816-4.089c0.066-2.201,1.868-3.882,4.09-3.815c2.201,0.066,3.882,1.868,3.816,4.089
				C28.659,27.072,26.857,28.753,24.635,28.686z"/>
		</g>
		<g>
			<path fill="#C4C4C4" d="M31.194,16.953c-0.913-0.017-1.439,0.529-1.428,1.455c0.01,0.843,0.513,1.276,1.358,1.346
				c0.899-0.057,1.457-0.532,1.432-1.453C32.535,17.488,32.002,16.968,31.194,16.953z"/>
		</g>
	</g>
</g>
</svg>
